<?xml version="1.0" encoding="UTF-8"?><svg id="Layer_2" xmlns="http://www.w3.org/2000/svg" viewBox="0 0 192.91 47.35"><defs><style>      .cls-1 {        fill: #436082;      }      .cls-2 {        fill: #cc7759;      }    </style></defs><g id="Layer_1-2" data-name="Layer_1"><g id="Layer_1-2"><g><path class="cls-2" d="M91.33,36.36c-.82,3.63-2.88,6.34-5.3,7.52-.86.42-2.06.8-3.01.93-1.04.13-3.66,0-4.69-.29-2.5-.72-5.08-2.79-6.24-5.12-.14-.29-.27-.56-.4-.83-.25.19-.5.35-.73.49-.72.43-1.82.85-2.66,1-.23.04-.46.07-.67.09,2.03,2.66,4.77,4.46,8.04,5.26,1.55.38,1.77.42,2.41.42.34,0,.73.04.9.09.34.09,3.57.09,4.39-.09.69-.13,1.51-.25,1.9-.34.65-.13,2.37-.72,3.1-1.02,1.2-.47,1.77-.76,2.15-.63s.64.55.73.93c.04.17,0,.29.09.38.17.17.39.13.56.09s.13-.13.22-2.79c.04-1.52.04-3.72.04-4.82v-2.03h-.65l-.17.76h0Z"/><path class="cls-2" d="M70.02,24.78c.24.11.47.23.69.36.07-.28.15-.6.26-1,.13-.47.64-1.82,1.12-2.79.69-1.44,2.02-2.96,3.4-3.89,1.9-1.27,3.44-1.65,5.81-1.48,2.15.17,3.92.93,5.6,2.49,1.68,1.56,2.54,3,3.57,6.51.09.29.17.38.34.42.26.04.39.09.47-.55.09-.63,0-1.9,0-4.56s-.04-4.56-.09-4.61c-.13-.13-.52,0-.65.13-.04.04-.17.34-.3.55-.34.55-.69.89-1.29.89s-1.12-.55-2.5-1.18c-1.29-.59-1.72-.72-3.1-1.02-.77-.17-1.2-.17-2.79-.17-2.06,0-2.76.09-4.78.59-2.37.59-4.09,1.44-5.85,2.75-1.68,1.23-3.06,3.04-4,4.99-.16.32-.3.66-.43.99.39-.04.79-.06,1.25-.06,1.22,0,2.05.1,3.27.64h0Z"/><path class="cls-2" d="M104.54,44.26c-.3,0-.56-.04-.65-.13-.17-.17-.26-4.69-.22-11.88.03-3.63-.01-5.5-.13-5.58-.17-.13-.43-.21-2.06-.21-2.63,0-4.6,0-4.87.09-.17.04-.17.09-.17.29,0,.17,0,.38.13.42.22.09.56.09,1.04.09s.64.04.73.13c.13.13.13.38.09,1.35-.04.67-.09,4.06-.09,7.9,0,3.17-.04,5.96-.04,6.93,0,.21-.04.34-.04.42s-.13.17-.86.17c-.3,0-.86.04-.86.04,0,0-.04.17-.04.29s-.04.47.09.59,5.08.04,5.25,0,.99-.04,1.81,0c1.25.09,1.47.04,1.63-.13.09-.09.09-.76,0-.76-.17,0-.43-.04-.73-.04h0Z"/><path class="cls-2" d="M98.99,22.83c.17.13.61.34.9.47.56.21.73.21,1.38.13.99-.13,1.51-.29,2.24-1.1,1.5-1.69.9-4.36-1.29-5.37-.73-.34-1.72-.34-2.5.04-.69.34-1.38.89-1.68,1.4s-.52,1.52-.47,2.11c.04.85.73,1.82,1.42,2.33h0Z"/><path class="cls-2" d="M131.35,29.22c-.99-1.31-2.28-2.24-4.05-2.92-.86-.34-2.58-.63-3.66-.63-2.76,0-5.6,1.14-7.54,2.83-.34.29-.65.59-.73.59-.13,0-.17-.55-.17-6.51,0-5.07,0-6.56-.13-6.72-.13-.17-.13-.21-.77-.21l-6.24.04c-.26.25-.17.47-.09.72.04.17.21.17.82.17,1.16,0,1.07-.38.99,6.85-.04,3.42-.04,9.43-.04,13.28,0,6.43,0,7.27-.17,7.44-.13.13-.3.13-.77.13-.61,0-.73,0-.77.29-.04.42-.04.51.09.59.17.09.73,0,3.4.04,3.06.04,3.19,0,3.4-.17.34-.25.43-.76.34-1.65-.13-1.18.09-1.27,1.04-.42.73.67,1.72,1.35,2.41,1.73,1.12.63,2.8,1.06,4.17,1.14,2.37.13,4.43-.42,6.46-1.82,2.11-1.44,3.53-3.76,3.96-6.51.26-1.61.26-2.29.09-3.3-.34-2.03-.9-3.51-2.02-4.99h0ZM127.14,39.99c-.73,1.73-2.06,3.25-3.53,3.93-.82.38-1.47.42-1.9.42-.61,0-1.12,0-1.77-.25-.95-.38-1.68-.67-2.54-1.52-.61-.59-.77-.85-1.16-1.65-.47-.97-.86-2.11-1.04-3.09s-.09-3.68.09-4.69c.47-2.75,1.68-4.31,3.79-5.45.86-.47,1.55-.63,2.54-.63.77,0,.99.04,1.59.29,1.04.42,1.85.97,2.58,1.78,2.33,2.58,2.88,7.23,1.33,10.86h0Z"/><path class="cls-2" d="M154.98,28.96c-2.5-2.54-6.46-3.63-10.54-3.04-4,.59-6.76,2.36-8.22,5.45-.65,1.35-.95,2.41-.99,4.02-.04,1.52.09,2.16.61,3.8.39,1.23.69,1.78,1.38,2.71,1.5,2.03,3.83,3.34,6.8,3.93.64.13,1.47.21,2.97.21,3.49,0,6.5-1.44,8.31-3.63.86-1.06,1.63-2.74,1.93-4.14.43-1.9.22-4.44-.34-6.13-.47-1.4-1.04-2.29-1.9-3.17h0ZM151.54,39.36c-.43,2.71-1.85,4.86-3.66,5.54-.69.25-2.24.34-2.97.13-.82-.25-1.77-.8-2.28-1.44-.77-.97-1.55-2.66-1.72-3.98-.04-.34-.13-1.44-.17-2.45-.21-4.74.65-8.03,2.28-9.39,1.33-1.1,3.7-1.4,5.42-.55.61.29.73.38,1.33,1.23.95,1.31,1.55,2.54,1.72,4.4.04.42.09,1.18.17,1.56.17.85.09,3.6-.13,4.94h0Z"/><path class="cls-2" d="M167.94,44.26c-.22,0-.95-.04-1.08-.21-.09-.13-.17-17.25,0-24.05.09-3.6.09-4.06-.09-4.23-.13-.13-.34-.04-1.63-.13-.82-.04-2.15.04-2.79,0-1.08-.09-1.81,0-2.28,0-.3,0-.39,0-.39.09l-.04.85s.47,0,.95.04c.43.04.86,0,.95.04.09.04.04,3.63-.04,12.05-.04,5.2-.09,12.17-.09,14.5,0,1.06-.22,1.02-.95,1.06-.56.04-.86.13-.86.38,0,.29-.04.42.09.51.09.04.39.04.9.04.99,0,4.17.09,6.03,0,1.2-.04,1.63.04,1.85,0,.17-.04.09-.89.09-.89,0,0-.39-.04-.61-.04h0Z"/><path class="cls-2" d="M192.34,32.13c-.47-1.4-1.04-2.29-1.9-3.17-2.5-2.54-6.46-3.63-10.54-3.04-4,.59-6.76,2.36-8.22,5.45-.65,1.35-.95,2.41-.99,4.02-.04,1.52.09,2.16.61,3.8.39,1.23.69,1.78,1.38,2.71,1.5,2.03,3.83,3.34,6.8,3.93.64.13,1.47.21,2.97.21,3.49,0,6.5-1.44,8.31-3.63.86-1.06,1.63-2.74,1.93-4.14.43-1.9.22-4.44-.34-6.13h0ZM187,39.36c-.43,2.71-1.85,4.86-3.66,5.54-.69.25-2.24.34-2.97.13-.82-.25-1.77-.8-2.28-1.44-.77-.97-1.55-2.66-1.72-3.98-.04-.34-.13-1.44-.17-2.45-.21-4.74.65-8.03,2.28-9.39,1.33-1.1,3.7-1.4,5.42-.55.61.29.73.38,1.33,1.23.95,1.31,1.55,2.54,1.72,4.4.04.42.09,1.18.17,1.56.17.85.09,3.6-.13,4.94h0Z"/><path class="cls-2" d="M45.93,23.76c.43.13.73.27,1.03.49.39.29.83.78,1.04,1.19.09.14.37,1.18.43,1.48.01.07.06.3.14.37.1.1.29.12.4.11.09,0,.16-.04.2-.1.04-.06.06-.09.06-3.74,0-.31,0-.5-.16-.55-.03-.02-.46-.02-1.28-.02-.99,0-2.48.01-4.06,0-3.52-.02-5.32,0-5.4.07-.08.07-.14.52-.17,1.33l.02,2.74c0,.18.12.29.31.29.12,0,.28-.06.36-.36.23-1.04.35-1.43.65-1.9.22-.37.61-.78.85-.94.32-.21.52-.32.98-.44.32-.09.83-.09,1.02-.07.02.31.03,1.48.03,3.93,0,1.33,0,2.79-.01,3.93,0,.74,0,1.35,0,1.71l-.02,1.7h-.38c-.14,0-.22,0-.28.06l-.05.05v.04s-.04.12-.04.22c0,.13,0,.25.14.31.09.05.22.05.75.04.27,0,.63,0,1.12,0,.42,0,.79,0,1.07.01.24,0,.41,0,.53,0,.22,0,.25,0,.28-.03.16-.07.19-.13.19-.29v-.39h-.69c-.02-.31-.04-1.65-.06-4.86,0-2.3.03-5.67.04-6.43.24,0,.69-.01.96.06h0Z"/><path class="cls-2" d="M69.14,34.34c.11-.21.13-.37.07-.49-.04-.08-.11-.14-.19-.16-.3-.1-.45.09-.65.38-.23.32-.49.55-.85.73-.32.17-.69.26-1.09.26-.54,0-.94-.18-1.4-.61-.52-.49-.79-.98-.96-1.71-.04-.18-.12-.51-.13-.63.23-.02,1.05-.02,2.89-.02,3.04,0,3.06-.01,3.16-.12.13-.13.12-.23.08-.54-.06-.48-.24-1.24-.33-1.47-.2-.53-.36-.73-.57-1.01l-.08-.1c-.42-.56-.93-.96-1.63-1.27-.59-.26-.89-.31-1.74-.31-.93,0-1.25.06-1.89.37-.99.48-1.62,1.05-2.11,1.91-.28.5-.52,1.43-.52,2.01s.16,1.38.39,1.89c.36.8.94,1.45,1.77,2,.26.17,1.05.42,1.42.51.21.06.56.08.89.08s.69-.02.9-.06c.41-.07,1.09-.33,1.42-.53.61-.37.94-.67,1.16-1.09h0ZM64.12,30.04c.22-.7.45-1.13.75-1.42.29-.28.51-.4.85-.47.35-.07.75.06,1.04.34.26.25.5.8.64,1.44.24,1.15.19,1.37.16,1.4-.07.03-.56.03-1.84.03-1.12,0-1.7-.01-1.83-.02-.03-.15,0-.67.22-1.31Z"/><path class="cls-2" d="M60.02,35.69h.14c.07,0,.14,0,.21-.06.07-.07.07-.15.07-.28v-.31l-.11-.04s-.09-.02-.19-.02h-.31c-.01-.31-.02-1.13-.02-2.17v-.61c0-1,0-1.46-.07-1.88-.09-.5-.27-.94-.54-1.32-.05-.08-.11-.16-.16-.23-.68-.84-1.37-1.22-2.55-1.42-.35-.06-.55-.05-1.68.2-.35.07-.75.29-1.1.61-.07.06-.12.1-.17.14-.01-.37,0-1.28.01-2.87.02-2.3-.01-2.33-.12-2.4-.02-.01-3.01-.11-3.16.09l-.03.03c-.05.06-.07.1-.06.18v.05c0,.07,0,.27.16.32.06.03.13.02.26.02h.18c.11,0,.17,0,.21,0,.01.28,0,1.24-.01,1.97-.02,1.03-.02,3.55-.02,5.57,0,1.63-.02,3.11-.03,3.72h-.16c-.28,0-.48,0-.52.23-.02.15-.02.23,0,.32l.04.07s.08.07.19.07h.67c2.08.02,2.15,0,2.21-.02.23-.1.24-.33.21-1.83-.04-1.72-.02-3.65,0-3.84.01-.17.04-.3.07-.43.01-.05.02-.1.03-.15.06-.32.16-.43.5-.81.23-.26.46-.35.92-.5.77-.25,1.53.1,1.93.91.25.5.31,1.01.29,3.85v.3c-.01,1.12-.01,1.74-.07,1.82h-.14c-.31,0-.44.04-.49.13-.11.18-.07.44.07.53.07.05.14.05.72.04.28,0,.66-.01,1.14-.01.34,0,.62,0,.87,0h.66v.02Z"/></g><path class="cls-1" d="M52.2,46.41c-.37-.25-.74-.5-1.12-.73-.27-.17-.57-.3-.79-.54-.06-.06-.12-.1-.19-.14-.26-.17-.52-.34-.79-.5-.22-.14-.45-.27-.69-.4-.3-.17-.6-.32-.9-.48-.03-.02-.07-.04-.1-.06-.23-.12-.47-.25-.7-.37-.26-.12-.52-.23-.78-.36-.26-.12-.53-.21-.73-.43-.04-.04-.08-.07-.13-.1-.04-.02-.09-.04-.13-.06-.45-.21-.9-.41-1.4-.48-.11-.02-.23-.04-.33-.09-.27-.12-.56-.2-.81-.24-.16-.13-.26-.26-.4-.34-.41-.21-.84-.39-1.28-.49-.19-.04-.38-.08-.57-.12-.12-.02-.23-.07-.32-.17-.07-.08-.19-.12-.29-.17-.08-.04-.17-.06-.26-.1-.02-.01-.04-.02-.06-.03-.35-.19-.72-.31-1.12-.31-.24,0-.44-.1-.62-.26-.12-.12-.27-.21-.42-.29-.41-.2-.82-.37-1.25-.49-.14-.04-.26-.09-.36-.18-.13-.13-.29-.22-.46-.29h0c-.09-.04-.19-.07-.29-.1-.26-.09-.52-.17-.79-.26-.14-.05-.28-.09-.44-.09-.12,0-.22-.04-.32-.1-.28-.17-.56-.35-.89-.42-.54-.13-1.07-.27-1.6-.4-.36-.09-.71-.18-1.07-.27-.11-.03-.2-.09-.26-.2-.12-.2-.26-.37-.4-.56-.24-.32-.47-.64-.7-.97-.02-.04-.05-.08-.06-.12-.09-.3-.26-.56-.39-.83-.36-.73-.83-1.39-1.26-2.08-.46-.74-.94-1.46-1.4-2.2-.07-.12-.13-.24-.19-.36,0,0,0,0,.01,0,.02-.02.04-.04.06-.06h0c.26-.29.5-.59.7-.93.29-.47.59-.95.9-1.41.32-.48.59-1,.79-1.54.08-.2.19-.39.34-.55.06-.06.11-.12.16-.18.36-.48.7-.98,1.02-1.49.02-.03.11-.2.16-.26.02-.02.03-.04.04-.06.03,0,.06-.02.09-.03.18-.07.37-.13.55-.21.41-.15.82-.31,1.22-.47.06-.02.11-.03.16-.06.56-.25,1.1-.51,1.66-.76.09-.04.19-.09.29-.12.23-.07.44-.2.65-.32.39-.23.79-.46,1.19-.69.35-.2.7-.39,1.04-.61.46-.3.91-.62,1.36-.94.67-.47,1.35-.92,1.96-1.45.29-.26.57-.52.9-.74.79-.55,1.57-1.13,2.35-1.68.4-.28.81-.56,1.24-.81.63-.38,1.24-.8,1.78-1.29.07-.07.17-.12.25-.18.14-.1.29-.19.42-.29.19-.16.37-.35.57-.49.59-.39,1.1-.86,1.62-1.33.31-.28.58-.61.87-.93.02-.02.02-.06.03-.1-.05.01-.09,0-.11.02-.11.09-.21.18-.32.26-.36.29-.7.59-1.07.86-.29.21-.57.42-.82.67-.11.1-.22.2-.34.29-.42.3-.85.59-1.27.88-.17.12-.34.24-.5.37-.26.2-.52.38-.8.53-.62.31-1.22.64-1.78,1.05-.26.19-.56.31-.89.35-.25.03-.49.11-.74.18-.31.09-.61.2-.92.3-.25.08-.51.14-.74.29-.07.04-.15.06-.22.08-.12.05-.24.09-.34.15-.17.12-.36.14-.56.1-.22-.04-.44-.04-.65,0-.18.03-.36.09-.54.11-.46.06-.86.25-1.26.45-.16.08-.29.1-.46.07-.14-.02-.3-.04-.44-.03-.44.04-.87.12-1.25.36-.02.02-.06.02-.12.03-.12-.23-.34-.3-.58-.34,0-.13.07-.21.13-.29.09-.1.17-.21.26-.32.16-.21.29-.45.34-.7.07-.36.24-.69.38-1.02.04-.1.09-.21.16-.3.29-.34.44-.74.54-1.17.04-.22.16-.4.29-.58.16-.21.32-.42.47-.63.19-.26.31-.56.37-.88.05-.29.16-.55.3-.79.11-.2.22-.4.32-.6.15-.29.28-.6.45-.88.31-.53.65-1.05.97-1.57.16-.28.31-.56.47-.83.11-.19.2-.38.31-.57.06-.11.13-.21.19-.32.36-.65.68-1.32,1.12-1.92.21-.28.34-.59.46-.91,0-.02-.01-.04-.02-.08-.05.06-.1.1-.14.15-.14.18-.27.37-.41.55-.26.34-.52.66-.75,1.02-.46.7-.86,1.42-1.35,2.1-.36.51-.68,1.06-1.02,1.59-.06.09-.12.17-.19.24-.14.13-.26.29-.36.46-.04.07-.08.14-.13.2-.17.21-.35.42-.52.64-.22.29-.47.56-.67.87-.19.3-.42.57-.64.85-.33.42-.7.81-1.05,1.22-.14.17-.29.32-.44.48-.21.24-.44.47-.64.72-.49.63-.98,1.27-1.47,1.9-.17.21-.32.45-.52.64-.19.17-.36.35-.52.55-.3.37-.62.74-.8,1.19-.02.06-.07.12-.12.16-.16.13-.28.3-.41.47-.19.25-.37.5-.56.74-.16.21-.32.42-.48.62-.04.04-.08.08-.11.12-.14.17-.34.26-.52.38-.54.35-1.09.69-1.62,1.05-.17.11-.34.21-.49.33,0,0-.01,0-.01,0-.03.01-.06.02-.08.04s-.12.09-.16.1c0,0,0,0-.01.01-.02.01-.05.02-.07.04-.35.2-.7.39-1.05.59-.18.1-.35.21-.53.32-.07.04-.14.07-.21.11-.31.15-.62.29-.93.45-.09.04-.16.07-.25,0-.18-.13-.4-.17-.61-.21-.2-.04-.41-.09-.61-.13-.2-.04-.41-.09-.61-.14-.09-.02-.19-.04-.26-.09-.27-.21-.6-.29-.92-.37-.39-.09-.74-.23-1.1-.37-.35-.13-.72-.23-1.05-.42-.05-.02-.11-.02-.16-.05-.17-.07-.34-.13-.51-.21-.37-.17-.74-.37-1.12-.53-.58-.25-1.17-.47-1.76-.7-.09-.03-.17-.07-.26-.09-.54-.16-1.63-.31-1.63-.31,0,0-.17-.02-.17-.02,0,0-.24,0-.21-.27.04-.27-.04-.54,0-.81.02-.15,0-.3-.12-.41-.09-.09-.11-.2-.12-.31-.07-.49-.25-.94-.45-1.39-.21-.47-.42-.93-.57-1.43-.09-.3-.24-.59-.4-.86-.09-.16-.19-.31-.24-.48-.02-.1-.08-.19-.12-.28-.16-.35-.35-.69-.49-1.05-.12-.31-.29-.59-.47-.86-.29-.42-.58-.82-.85-1.24-.21-.31-.41-.63-.51-1-.03-.13-.09-.23-.22-.31-.08.07-.17.13-.26.21-.11-.18-.18-.34-.19-.53-.04-.54-.23-1.04-.41-1.54-.03-.09-.07-.19-.19-.26-.04.07-.07.13-.09.19-.04.21-.11.4-.18.61-.02-.21-.06-.43-.11-.64-.07-.32-.16-.64-.28-.96-.12-.31-.25-.61-.24-.94,0-.04-.01-.08-.04-.1,0-.02,0-.05-.01-.07-.02-.11-.03-.23-.06-.34,0-.04-.06-.07-.09-.08s-.09.02-.12.04c-.03.03-.05.07-.06.12-.09.2-.17.4-.26.61-.06-.4-.13-.81-.22-1.21-.06-.29-.14-.57-.24-.84-.04-.09-.07-.18-.13-.26-.02-.07-.06-.13-.08-.2-.07-.17-.12-.34-.17-.51-.06-.2-.11-.4-.16-.59-.01-.04-.04-.15-.09-.13-.16.39-.27.76-.32,1.15-.07-.21-.14-.43-.22-.64-.02-.06-.05-.1-.08-.15-.05-.17-.17-.47-.28-.78v-.02c.02-.07-.01-.13-.06-.16-.03-.11-.06-.22-.09-.32,0-.02-.09-.06-.14-.06s-.12.04-.13.09c-.04.12-.07.24-.1.36-.04.19-.05.39-.09.57-.09.41-.16.83-.16,1.25,0,.23,0,.45-.01.68-.02.2-.1.94-.11,1.15-.01.29-.03.59-.02.89,0,.47.02.93.05,1.4.04.62.1,1.25.15,1.87.02.32.04.64.06.96.01.27.02.55.04.82.01.31.16,2.62.17,2.71.02.33.07.66.07.99-.01.34.09.67.11,1.01.02.42.1.83.14,1.26.04.45.08.91.11,1.36.02.5.06,1,.14,1.49.02.15.08.31.11.46.12.59.23,1.18.35,1.77.07.34.18.66.22,1,.01.11.04.23.07.33.06.17.12.34.11.53,0,.07.02.16.04.23.21.79.33,1.61.58,2.39.14.45.36.84.76,1.1.29.19.88.5.86.5.16.06.32.12.49.17.35.11.69.26,1.05.34.25.05.5.1.74.18.48.17.95.34,1.46.41.42.06.79.25,1.08.55.26.27.39.59.35.96,0,.06-.01.12-.01.17,0,.6-.31,1.04-.77,1.38-.39.29-.86.37-1.32.48-.3.08-.61.12-.92.16-.61.08-1.07.41-1.5.8-.07.06-.11.14-.16.22-.11.18-.22.37-.32.56-.15.26-.3.52-.34.81-.06.41-.29.68-.64.88-.12.07-.23.15-.33.25-.07.07-.12.17-.16.26-.02.04.03.12.08.13h.14c.17-.04.33-.09.5-.13.32-.07.65-.09.92.13.17.13.36.23.54.31.01.01.02.02.03.03v-.02s.01,0,.02.01c0,0-.01,0-.02,0h.04c.07.03.14.06.21.09.66.29,1.35.66,2.33.75,1.82.17,3.91.16,3.9.15.23.02,2.2-.07,4.43-.64,0,.01.22-.05.33-.09.05.07.1.12.13.18.17.32.35.64.51.97.1.19.17.39.27.59.21.42.41.84.56,1.29,0,.01,0,.02.01.03.22.39.4.8.52,1.23.02.07.04.13.08.19.05.07.09.15.14.22q.05-.02,0,0c.21.32.41.64.62.96.11.16.23.31.36.45.02.02.04.04.06.06.1.1.2.21.32.29.3.18.6.39.97.45.08.01.15.06.22.08.34.11.68.22,1.02.32.35.11.7.2,1.06.32.45.15.89.31,1.37.31.03,0,.07.01.1.02.09.02.17.04.27.06v-.02c.67.15,1.33.32,2.01.44.17.03.34.06.51.09s.34.03.51.07c.35.08.7.15,1.05.19.26.03.52.06.79.09.3.04.59.07.89.1.27.03.54.06.82.09-.01-.03-.02-.07-.02-.09.01.03.02.06.02.09.13.02.26.03.38.06.39.07.77.11,1.16.15.62.07,1.23.13,1.85.22.09.01.19.02.28.04.27.04.54.07.82.07.06,0,.12-.01.17.01.12.06.25.03.37.03.22,0,.44-.02.65.04.32.08.63.12.95.13.22,0,.44.02.65.03.22.01.45.03.68.04.05,0,.1,0,.15.01.11,0,.23.02.34.02.24.02.48.05.72.06.48.01.96.06,1.45.1.23.02.46.04.69.06.07,0,.14.01.21.01.48.02.87.06,1.41.18.65.04,1.3.09,1.95.13.51.04,1.03.07,1.53.17.5.04,1,.05,1.5.15.07.01.14.01.21.02.25.01.51.03.75.03.74,0,1.47.1,2.21.02.1-.01.21-.02.31-.06.07-.02.11-.09.09-.17-.04-.14-.09-.28-.23-.37-.16-.1-.31-.2-.46-.3l-.02-.02ZM36.8,17.77c.07-.07.14-.14.22-.21l.06-.06c.21-.2.43-.42.65-.61.04-.04.08-.07.13-.11.04-.03.09-.06.14-.1.04-.03.09-.06.12-.09.05-.03.1-.07.15-.1l.02.02-.02-.02h.01s.06-.03.08-.04h.01s.02-.01.03-.01c.04-.01.08-.02.12-.04.04-.01.09-.02.14-.04l.38-.11-.05.07c-.08.11-.17.22-.28.34-.08.09-.16.17-.24.25l-.04.04c-.06.06-.11.12-.17.18l-.09.09c-.07.08-.16.17-.24.25-.16.15-.31.3-.46.44-.73.67-1.45,1.18-2.21,1.55h0c-.09.05-.18.09-.26.12h-.02s-.08.05-.12.07h-.02s-.01-.01-.01-.01c0,0,0-.01,0-.02-.02-.05,0-.09.03-.12,0,0,.01-.01.02-.01h0s.01-.01.02-.02c.11-.1.23-.2.34-.29.06-.05.12-.1.18-.15l.04-.04s.06-.05.09-.07l.22-.2c.09-.09.19-.17.29-.26.2-.17.36-.32.51-.46.06-.06.12-.12.19-.17l.03-.02v-.02ZM34.91,17.8v-.02c.07-.07.12-.13.17-.19.17-.2.39-.45.63-.67.04-.04.07-.07.12-.09.07-.05.15-.08.24-.1.07-.01.14-.02.21-.01.06,0,.11,0,.16.01h.21v.09s0,.04,0,.06c-.02.1-.06.18-.14.26-.11.11-.21.21-.29.31h0s-.03.04-.05.07c-.27.34-.58.66-.93.98-.07.06-.14.12-.2.18-.13.12-.27.23-.42.34-.08.07-.16.13-.25.19l-.04.03c-.18.14-.35.26-.51.39-.09.07-.18.13-.27.19-.11.07-.22.13-.32.19-.04.02-.09.04-.13.06-.06.02-.12.06-.2.08h-.02s-.04.02-.05.02h-.04s0-.02,0-.02v-.08s.01-.02.02-.03c.01-.02.03-.04.04-.05l.02-.02s.03-.02.04-.04h0s.06-.09.09-.12l.04-.04c.09-.09.19-.17.29-.25.12-.11.26-.22.39-.34.04-.04.07-.07.11-.1s.07-.07.11-.1c.08-.08.15-.15.21-.22.11-.13.22-.27.32-.39l.11-.13c.12-.14.23-.28.35-.43h0ZM32.84,18.29l.11-.13c.25-.3.51-.61.74-.94.05-.07.11-.12.17-.17.01-.01.03-.02.04-.03.16-.1.36-.13.57-.16h.04s.09.03.12.07c.01.02.02.04.02.06v.07h0c0,.1-.02.17-.06.21-.04.07-.08.13-.12.19-.07.12-.15.21-.22.31l-.02.02s-.02.03-.03.04c-.09.1-.19.22-.32.36-.07.07-.14.14-.21.21-.04.04-.09.09-.13.13-.02.02-.03.04-.05.05l-.02.02c-.19.2-.42.39-.71.62l-.17.13c-.07.06-.14.11-.21.17l-.12.09c-.06.04-.11.09-.17.12-.1.07-.2.15-.34.24l-.17.12c-.06.04-.12.08-.22.13l-.05.03s-.06.04-.09.06l-.08.05v-.07s.02-.06.03-.08c.04-.15.09-.26.16-.34.05-.06.11-.1.19-.14h0s.09-.05.13-.09c.04-.03.07-.07.12-.12.31-.37.68-.81,1.05-1.26h.01ZM31.78,14.03s.02-.06.03-.09c.04-.1.1-.17.16-.23l.02-.03c.14-.17.28-.33.42-.5.16-.18.31-.36.47-.55.07-.08.14-.16.21-.24.15-.17.31-.34.45-.51.04-.05.08-.1.12-.16.09-.11.16-.22.23-.32.08-.13.21-.2.36-.26l.04-.02v.08c-.01.13-.02.25-.06.37-.01.06-.03.1-.05.15-.02.05-.05.09-.07.13-.04.06-.07.13-.09.2,0,.03-.01.06-.01.09v.07h0s0,.02,0,.02c-.02.02-.03.04-.04.07,0,.01-.01.02-.02.04,0,0-.01.02-.02.02-.02.03-.05.05-.07.07-.02.01-.05.02-.08.02h-.09s-.02,0-.03.02c-.03.02-.06.05-.09.07-.48.43-.97.89-1.39,1.27h0s-.03.02-.04.04l-.03.02c-.07.07-.16.14-.28.2l-.06.02.02-.06h0ZM30.71,15.87s.03-.07.04-.1l.02-.06s.01-.02.02-.04c.05-.09.11-.17.16-.26h0c.06-.09.12-.18.19-.25l.08-.09c.19-.2.37-.41.57-.61.06-.06.13-.13.2-.19.17-.17.36-.33.54-.49l.05-.04c.19-.17.39-.32.61-.49.06-.05.13-.1.2-.16l.14-.11v.07s-.01.09-.01.12c0,.08,0,.15-.03.21-.1.23-.21.47-.37.67-.02.04-.06.07-.09.1s-.07.06-.1.09c-.13.11-.26.22-.39.33-.22.19-.44.39-.67.56-.07.05-.13.09-.19.13-.09.06-.17.13-.26.19-.07.06-.14.1-.21.16-.08.06-.16.1-.27.17l-.07.05s-.06.04-.09.06l-.08.05.04-.09v.02ZM30.21,17.44c.03-.09.05-.16.08-.23.04-.1.07-.2.12-.28h0s.02-.06.04-.08c.02-.03.04-.06.06-.07.03-.02.06-.06.09-.08.07-.06.14-.13.21-.19.05-.05.11-.1.16-.15.07-.07.13-.12.19-.17.03-.02.06-.06.1-.08.32-.25.64-.53.95-.8.11-.09.21-.18.32-.28l.06-.05s.11-.1.16-.14c.02-.02.05-.05.07-.07h.02s.02,0,.02,0c0,0,.02.01.03.02.02.02.02.04.03.06v.02s-.01.03-.02.04v.02s-.01,0-.01.01c-.02.06-.04.12-.07.18l-.02.07c-.06.17-.14.36-.26.52-.19.26-.36.43-.55.57-.02.02-.04.03-.07.05l-.02.02c-.07.06-.15.11-.22.16l-.03.02c-.17.13-.36.26-.54.39-.09.07-.17.13-.25.2l-.05.04c-.07.06-.13.11-.2.17-.06.06-.13.1-.21.17l-.21.16.07-.23h-.02ZM1.32,3.42c-.01.17-.02.34-.03.52-.01.18-.02.37-.04.56-.01.21-.03.42-.04.62l-.02.37s-.01.1-.02.14v.04s-.01.04-.02.05v.04c-.02.07-.03.15-.03.22,0,.53-.02,1.02-.06,1.5v.23c-.03.25-.04.5-.06.75,0,.18-.01.34-.01.49,0,.17,0,.34.01.5v.21c0,.17-.02.34-.05.53,0,.04-.01.07-.02.1h-.06l-.04-1.36c-.02-.58-.04-1.16-.05-1.74v-.51c0-.09,0-.18-.01-.27,0-.05,0-.09,0-.14v-.13c0-.12,0-.23,0-.35v-1.26c0-.2,0-.37,0-.53h0c0-.1,0-.2,0-.29-.02-.34-.04-.67-.05-1-.04-.2-.06-.41-.06-.63,0-.28-.01-.61.13-.88.02.04.06.08.09.12.26.34.35.81.48,1.21v.13c0,.1,0,.19.01.29,0,.17,0,.31,0,.43h-.02ZM16.81,22.56s.09-.07.14-.09c.16-.08.32-.1.46-.12.04,0,.07,0,.11,0h.1c.07,0,.12-.02.18-.04,0,0,.01,0,.02,0h.06s.04.01.06.02.04.04.05.06c0,.01.01.02.02.04v.02h-.01c-.17.1-.36.14-.54.13-.12,0-.23,0-.32.04-.09.03-.17.07-.24.14h-.01s-.02.01-.02.01c0,0-.05-.03-.06-.04-.02-.02-.03-.04-.03-.06,0-.02,0-.06.05-.09h-.01ZM15.07,22.29h.01s.01-.01.02-.01c.01-.01.03-.02.04-.03.04-.06.07-.08.17-.12h0s.04-.04.06-.04c.16-.1.33-.19.51-.26.15-.06.48-.18.56.04.09.26-.32.27-.46.31-.3.09-.56.29-.87.36-.16.04-.23-.21-.07-.25h.01ZM12.45,22.59c.06-.07.12-.12.2-.18.02-.02.05-.03.07-.05.03-.02.06-.04.09-.06h.01s.04-.04.06-.05c.04-.02.09-.06.14-.09l.04-.03c.16-.12.32-.25.51-.34.11-.05.18-.13.26-.21.02-.02.04-.04.05-.06.04-.04.1-.1.17-.14,0,0,.01,0,.02-.01,0-.02.02-.04.04-.06.12-.09.24-.19.4-.21.11-.02.26-.02.33.08.02.03.03.06.03.09h0s.04.04.02.06l-.03.06c-.03.06-.07.12-.1.17-.04.06-.07.1-.09.14-.01.02-.04.04-.06.06-.04.03-.09.06-.13.06h-.03c-.22.05-.42.17-.61.29-.03.02-.06.04-.09.06-.02.01-.05.03-.07.04-.03.02-.06.04-.09.05-.22.12-.44.22-.65.31-.11.04-.22.07-.32.07h-.04s-.07,0-.11-.01h-.05s.03-.05.03-.05h0ZM10.35,21.49c.07-.07.16-.15.23-.22v-.05.04c.14-.12.27-.24.41-.36.01-.01.02-.02.04-.02.19-.21.4-.41.62-.6.13-.11.27-.21.41-.16.02,0,.03,0,.04.02.02.01.05.03.07.05.04.03.05.12.02.15-.09.12-.21.22-.32.32,0,.02,0,.02-.01.03-.09.09-.17.17-.25.23-.04.03-.07.06-.12.07-.01,0-.02,0-.04.01-.12.1-.26.21-.38.32-.2.17-.4.33-.61.5-.17.14-.34.31-.55.4-.02,0-.03,0-.04,0-.02.01-.04.02-.06.02h-.02s-.04-.02-.06-.04c-.02-.01-.05-.04-.09-.07l-.02-.02.03-.02s.01-.09.07-.1c.25-.11.43-.3.62-.49h.01ZM9.79,20.55v.02c-.06.07-.14.18-.21.26-.04.06-.1.11-.15.17-.12.13-.27.28-.39.39-.06.06-.12.11-.17.15-.01.01-.02.02-.04.04-.02.02-.04.03-.06.05-.03.02-.06.05-.09.07-.02.02-.04.03-.07.04l-.12.07.26-.34c.09-.12.17-.23.26-.34l.02-.03c.08-.1.16-.21.24-.31.08-.1.17-.2.27-.29h.01s.04-.05.07-.05h.01s.02,0,.04.01c.01,0,.02.01.03.02h0s.01,0,.02.01c.02.01.04.03.06.05,0,0,.02.02.02.02ZM5.13,11.5c.06-.32.12-.65.27-.94,0-.02.01-.06.02-.09h0s.01-.01.01-.01c.07-.26.19-.49.26-.75.01-.04.03-.06.06-.08.01-.02.03-.03.06-.04.05-.02.1.01.12.06.01.01.02.02.03.04,0,.01.01.02.02.02,0,0,0,.01,0,.02v.02h0s.04.05.06.07c.01.02.02.06.02.09.01.06.02.1.03.16v.02s0,.01,0,.01h0v.05h0s0,.04,0,.06c0,.04-.01.09-.03.13-.09.24-.2.49-.34.8l-.03.08c-.02.06-.06.13-.08.19l-.07.17c-.07.17-.15.34-.22.5h0v.02s-.02.09-.06.11c0,0,0,.02-.01.02-.05.17-.11.34-.19.5-.09.17-.36.02-.26-.15.06-.12.11-.23.16-.36.02-.1.04-.19.07-.29.03-.15.07-.29.1-.45h0ZM2.26,8.22h0s0,.03,0,.04c-.01.06-.02.13-.03.2-.02.18-.03.36-.02.54,0,.16,0,.32,0,.5,0,.15-.02.31-.04.5l-.04.33c-.01.09-.02.17-.02.26v.43s-.02.09-.05.11c-.07.11-.28.08-.28-.08v-.93s0-.02-.01-.03c0,0,0-.01,0-.02h0s-.03-.21-.02-.26c.01-.13.02-.28.04-.4,0-.09.02-.17.02-.25.01-.58.03-1.15.06-1.73-.02-.19-.01-.38,0-.58.02-.27.04-.54.05-.81,0-.17.01-.32.02-.49,0-.11-.02-.22-.02-.33-.01-.36.02-.71,0-1.07-.02-.4-.06-.8-.04-1.2-.01-.11-.04-.22,0-.3.01-.06.07-.1.13-.12.16.12.21.39.27.56.07.25.12.49.17.74.06.31.11.62.16.93,0,.04,0,.08,0,.12v.48c-.02.26-.06.7-.11.96-.04.22-.06.44-.09.66h-.03.03c0,.09-.02.17-.02.25-.01.1-.02.21-.03.32,0,.09-.02.18-.02.26,0,.07-.01.13-.02.2,0,.06-.02.13-.03.19h-.02ZM3.34,10.68c-.06.3-.11.61-.16.91-.06.37-.13.76-.2,1.14-.02.15-.04.29-.03.47.01.33-.01.64-.07.94,0,0-.13,1.69-.14,1.92,0,0-.01.24-.02.32v.05l-.04-.03s-.05-.03-.07-.04c-.04-.02-.07-.04-.09-.07s-.04-.05-.07-.07c-.02-.02-.04-.05-.06-.07s-.04-.04-.06-.07h0s0-.02,0-.02c0-.06,0-.12.01-.18l.14-1.26c0-.08.02-.17.02-.25,0-.04.02-.19.02-.19,0-.02.03-.33.04-.4.01-.24.03-.45.05-.64.02-.17.04-.34.06-.51.01-.1.02-.2.03-.29.01-.1.07-.54.07-.54h-.01s.06-.51.11-.74c.04-.21.07-.4.07-.56v-.07c.02-.43.04-.88.17-1.31.01-.05.01-.1.01-.16s0-.11.01-.17c.06-.21.08-.44.08-.73v-.07c0-.14,0-.29.07-.42h0s0-.05,0-.07v-.06c.03-.34.06-.68.09-1.02,0-.09.07-.21.2-.39l.02-.04.02.04s.04.06.07.1c0,.01.02.02.02.04.02.07.04.14.06.21.13.56.18,1.13.21,1.71-.01.05-.02.09-.04.14,0,.02-.02.06-.02.08-.03.11-.07.21-.1.32-.07.21-.14.43-.19.66-.09.41-.17.84-.24,1.25l-.03.16v-.02ZM3.53,14.56v-.27s0-.09.02-.13v-.06c.12-.95.24-1.91.39-2.85.09-.58.25-1.15.36-1.72.02-.27.06-.54.12-.8.01-.11.02-.22.02-.33,0-.08.05-.13.11-.15.08-.09.26-.09.29.06.11.48.17.95.1,1.45-.07.48-.2.94-.37,1.39-.02.1-.06.21-.08.31-.09.36-.19.7-.26.96-.01.05-.03.1-.04.15,0,.01,0,.02,0,.04-.04.32-.08.65-.12.97-.02.16-.04.31-.06.47-.02.14-.06.28-.14.4-.02.03-.04.04-.07.05h0s0,.02,0,.02c-.02.04-.06.08-.14.15l-.11.1v-.21ZM4.6,14.57c-.01.06-.03.11-.04.17h0s-.02.07-.02.1c-.02.08-.04.17-.07.24-.02.09-.03.18-.06.27-.17.67-.48,1.31-.51,2.01,0,.09-.09.13-.16.12l-.02.02-.02-.04s-.05-.05-.06-.09h0c.04-.7.32-1.35.51-2.02.09-.35.11-.7.23-1.05.11-.33.25-.66.39-.98.06-.15.31-.09.25.07-.02.05-.04.1-.06.14v.04s-.02.04-.04.06c-.02.04-.03.08-.04.12h0v.05h-.01l-.02.2v-.12c-.09.18-.15.37-.22.6,0,.03-.01.06-.02.08h.01ZM5.13,17.28s-.04.1-.06.15c-.04.09-.07.18-.11.28,0,.02-.02.04-.04.06v.02s-.02.02-.03.02l-.03.06-.02-.06h.02s-.02,0-.02,0c0-.01-.01-.02-.01-.04,0-.02-.01-.03-.02-.04v-.03s.02-.07.03-.11v-.02c.04-.1.06-.18.09-.26l.03-.09s.02-.05.02-.08c.06-.2.11-.37.12-.55v-.02s0-.04.01-.06c.04-.1.07-.2.12-.3.09-.24.18-.48.3-.71.01-.02.02-.04.02-.06h0s.04-.09.05-.13c.04-.12.07-.25.09-.39,0-.03,0-.07.01-.1v-.13c0-.1,0-.2.04-.31l.05-.18c.12-.43.24-.89.36-1.33.01-.05.03-.1.04-.15.05-.16.11-.29.17-.4h0s.01-.03.02-.04c0,0,0-.01,0-.01,0-.01.01-.02.02-.03.02-.04.03-.09.05-.13.01-.04.02-.07.03-.1,0-.02.02-.04.02-.06,0-.02,0-.04.01-.06.02-.15.09-.3.12-.45.03-.14.22-.1.25.01.09.15.12.31.09.5-.01.09-.04.18-.06.28-.05.16-.11.31-.17.46-.04.1-.09.21-.13.32-.06.17-.13.34-.2.51-.07.18-.15.38-.22.57-.28.8-.56,1.61-.82,2.39-.08.25-.18.54-.29.83h0ZM6.21,18.04l-.02.06c-.04.11-.09.21-.13.32-.09.27-.18.54-.27.81-.03.1-.14.11-.21.06h0s-.05-.07-.04-.13c.15-.46.31-.92.45-1.38.08-.26.12-.54.19-.81,0-.05.02-.09.03-.13.03-.12.07-.23.11-.34,0-.01.01-.02.02-.04,0-.04.01-.08.02-.12.03-.13.09-.25.15-.37.15-.31.29-.62.41-.95.11-.29.21-.59.39-.85.09-.12.17-.23.22-.37.02-.07.04-.13.08-.2.07-.16.16-.31.23-.46.07-.15.29-.02.22.13h0s0,.02,0,.03c0,.01.01.02.02.04.05.1-.06.75-.12.93-.26.75-.61,1.49-.95,2.19l-.06.12-.06.11v.02c-.06.09-.11.18-.15.28-.04.07-.07.15-.11.21-.03.06-.07.13-.1.19v.02c-.04.06-.07.11-.11.16-.12.13-.17.28-.23.44h0ZM6.74,20.16s0,0,0,.01v.02h0c-.07.08-.21.06-.24-.06v-.02h-.02.02c0-.08.03-.17.06-.24.06-.15.12-.29.16-.45-.02-.04-.02-.08-.01-.13.04-.18.12-.34.22-.5v-.06s0,0,0,0c.09-.12.12-.25.16-.39,0-.03.02-.07.02-.1.03-.1.06-.21.09-.31.04-.15.08-.31.13-.45.04-.13.08-.24.12-.34.02-.04.04-.09.06-.14.01-.04.02-.07.04-.12h0c.02-.07.04-.12.06-.18.01-.04.03-.07.04-.11.06-.12.11-.22.19-.3.02-.02.03-.05.04-.07.02-.26.14-.5.25-.73.06-.13.12-.26.17-.39.02-.07.06-.13.11-.2.04-.06.11-.12.17-.18l.02-.02.02.02c.07.09.14.17.19.25.02.03.04.06.06.09.06.1.11.2.15.31h0s.02.05.02.07v.02h-.01s-.03.02-.04.03c.01.02.02.06.01.08,0,.02-.02.06-.05.06h0l-.03.08s-.03.07-.04.11l-.15.29-.04.07s-.06.1-.08.15l-.09.17s-.04.09-.07.13c-.01.03-.02.06-.04.09-.05.1-.1.21-.18.31-.01.01-.02.02-.03.03-.07.18-.13.36-.19.53h0v.02h0s0,.02-.01.04c-.07.18-.15.36-.22.53-.29.66-.58,1.32-.94,1.94-.01.02-.03.04-.05.04l-.02.02ZM7.48,20.81l-.09.16c-.04.07-.08.13-.12.21l-.06.1v-.23s0-.04,0-.07h0s0-.05,0-.07v-.06c0-.09.02-.15.06-.21.02-.04.04-.07.07-.12.01-.02.02-.05.04-.07.01-.02.02-.03.03-.05.01-.02.03-.04.04-.06.06-.14.11-.28.17-.42.16-.4.33-.8.54-1.18l-.03-.03h.04c.04-.06.07-.12.11-.18.26-.44.56-.86.85-1.28.02-.04.07-.07.12-.05.14.05.23.17.23.31,0,.03-.01.06-.03.07,0,.01,0,.03-.01.04-.01.04-.03.09-.07.14-.11.19-.22.38-.34.57-.07.12-.14.24-.23.37l-.02.03c-.03.06-.07.1-.11.16-.04.06-.09.12-.15.19-.04.04-.08.09-.12.13-.06.14-.14.28-.21.41,0,.01,0,.02-.01.04h0s-.01.03-.02.04c0,.01-.01.02-.02.03h0c-.04.07-.08.12-.11.18l-.05.08c-.09.13-.17.27-.26.41l-.04.06s-.05.08-.07.12c-.04.06-.07.12-.11.19h0ZM7.92,21.62l-.02.02s-.03.04-.05.07-.04.05-.06.07l-.07.08h-.02s-.05-.02-.06-.04c-.04-.04-.02-.1,0-.12h0c.08-.19.16-.39.32-.53.09-.08.16-.15.21-.23.04-.06.06-.11.08-.17.03-.09.1-.17.17-.25.02-.03.05-.06.07-.09.21-.27.34-.58.47-.88l.06-.13s.02-.04.02-.06c.06-.12.11-.25.17-.37.06-.13.12-.25.18-.37,0,0,0-.02.01-.02h.03-.02s.01-.04.01-.04c.02-.04.04-.08.08-.12.02-.02.04-.03.06-.04.01,0,.03-.01.04-.02h.03s.01.02.01.02c0,0,.01,0,.01.01.07.12.11.23.11.35,0,.15-.04.29-.14.44-.04.06-.07.11-.1.17-.04.07-.09.15-.12.23-.07.13-.15.28-.24.4-.03.05-.07.1-.11.16-.06.08-.12.16-.18.24-.03.04-.06.08-.09.12h-.01s-.04.07-.07.1c-.09.12-.18.25-.27.38v.02c-.08.1-.15.2-.22.29,0,.01-.01.02-.02.03,0,.01-.01.02-.02.03-.02.04-.06.08-.11.09-.02,0-.04.02-.06.04-.02.02-.05.05-.07.07l.02.02ZM4.87,33.55c0-.06.01-.1.03-.15v-.02h0s0-.02,0-.02c.01-.03.03-.1.05-.15.02-.05.05-.08.07-.12.02-.05.06-.09.11-.12h0l.02-.02s.1-.1.16-.14c.02-.01.04-.02.06-.04.04-.03.07-.06.12-.09.03-.02.07-.05.12-.06h0s.03-.01.04-.02h.01s.03-.02.04-.03c0,0,0-.01.01-.02h.02s.03-.01.04-.02c.02,0,.04-.01.07-.02h.04s.03,0,.04.01c.05.02.08.07.1.12.01.02.01.05.02.07,0,.03,0,.06-.01.09,0,0-.01.02-.01.02s0,.02-.01.02h0-.02c-.09.11-.17.21-.26.31-.04.06-.09.1-.13.16-.01.02-.03.04-.04.06-.07.16-.07.35,0,.49.02.04.04.07.04.11.09.08.19.15.3.19,0,0,.01,0,.02,0,.06.01.12.02.18.03.16.01.33.02.49.01.02,0,.04-.02.06-.02h.01s.04-.02.06-.02c.06,0,.12-.01.18-.02.16-.02.33-.04.5-.05.2-.01.37-.04.52-.12.01,0,.03-.01.04-.02.05-.03.1-.04.16-.05.02,0,.04,0,.04.02,0,.01,0,.02,0,.03,0,.02-.01.04-.02.05,0,.01-.02.02-.03.02h0s-.02.03-.04.03c-.36.24-.67.37-.99.4-.22.02-.46.04-.68.04-.07,0-.14,0-.21.01h-.11c-.27,0-.54-.06-.81-.17h-.01s-.02-.02-.02-.03c-.01,0-.02-.01-.03-.02,0,0-.01-.01-.02-.02-.11-.1-.22-.21-.3-.35,0,0-.01,0-.02,0-.04-.02-.04-.09-.04-.13-.02-.09-.01-.17,0-.26h.02ZM6.06,35.02c0,.11-.09.2-.21.2s-.21-.09-.21-.2.09-.2.21-.2.21.09.21.2ZM5,35.2c-.28.06-.78,0-.84-.01-.06,0-.03-.09-.03-.09.01-.04.2-.53.22-.55h0s.06-.05.09-.06h.03s.32.15.4.2c0,0,.39.23.41.25l.07.04s-.24.2-.36.22h0ZM10.54,36.86c-.44.01-.89,0-1.33-.02-.35-.02-.7-.08-1.05-.11-.65-.06-1.3-.12-1.95-.27-.04-.01-.07-.03-.09-.06-.04,0-.08-.01-.11-.04-.03,0-.06-.01-.08-.02-.05-.02-.1-.04-.15-.06s-.1-.04-.15-.06c-.1-.04-.2-.06-.31-.09-.01,0-.02,0-.03-.02s-.02-.02-.04-.04c0-.01-.02-.02-.02-.03l-.04-.04h.04s.04-.02.05-.03h.01s.05-.02.08-.02c.49.04,1.02,0,1.65-.11.14-.02.28-.06.42-.09.16-.04.32-.07.48-.1.06-.01.11-.02.16-.03.09-.02.17-.03.26-.05.05-.01.09-.02.14-.03.18-.04.32-.09.46-.13l.08-.03c.06-.02.12-.04.18-.07.03-.01.06-.03.07-.04.09-.06.18-.09.27-.09.04,0,4.34-1.4,4.37-1.41.55-.14,2.07,2.1,2.06,2.11-.02.07-1.91.92-5.46,1h0ZM21.95,34.99s-.02.04-.03.06c-.02.03-.05.05-.09.06-.21.05-.39.17-.57.28-.13.09-.25.17-.39.22-.14.06-1.35.62-1.36.64-.37.21-.76.56-.42.83.21.17.55.03.77-.02.36-.07.7-.14,1.06-.21.16-.01.47-.04.46-.03-.06.07-.85.48-1.12.62-.21.1-.43.2-.64.32-.13.07-.24.19-.22.35.01.11.07.18.19.19.01,0,.22.04.24.02.06-.01.12.01.14.06.02.06,0,.12-.04.15-.04.03-.27.15-.35.2-.16.1-.1.36.1.36.21,0,.42,0,.64,0,0,.01.01.03.01.04,0,.06-.03.11-.08.12-.04.01-.07.02-.11.03-.06.02-.1.03-.14.04s-.09.03-.13.04c-.04.01-.07.02-.11.04v.05c.04.13.14.24.29.26.04,0,.39-.02.43-.03.06,0,.12.04.13.1.03.04.04.09.03.14-.02.06-.06.09-.12.1h-.02c-.1.01-.47.05-.58.09-.24.09-.14.4.1.37.07-.01.14-.02.2-.02.02,0,.05.02.07.05.02.03.03.07.02.11,0,.01-.31.07-.47.1-.07.02-.15.1-.14.18.01.17.14.24.29.24.08,0,.16,0,.24,0,.1.06-.06.26-.09.26-.1,0-.2.09-.19.19,0,.1.09.19.19.19h.19s.01,0,.02.01c.03.02.06.06.06.1.07.09.03.26-.12.24-.52-.08-.79-.51-.93-.98-.18-.59-.33-1.18-.55-1.76-.44-1.18-.99-2.31-1.42-3.49-.02-.06-.67-1.36-1.2-1.85-.4-.37-.85-.68-1.28-1-.01,0-.02,0-.01,0h0c-.2-.15-.39-.3-.58-.47-.01-.01-.02-.02-.04-.04-.29-.15-1.6-1.41-1.84-1.7-.47-.57-1-1.09-1.53-1.61-.37-.26-.74-.57-1.16-.73h0s-.03,0-.05-.01c-.09-.05-.19-.11-.29-.18,0,0-.02-.01-.03-.02h0c-.06-.02-.12-.06-.18-.08-.02-.01-.04-.02-.06-.04-.1-.04-.2-.07-.3-.11h0s-.03,0-.04-.01c-.01,0-.03-.01-.04-.02-.17-.06-.37-.11-.51-.21-.07-.05-.11-.11-.14-.17,0,0,0,0-.01-.01-.09-.07-.11-.11-.12-.13-.02-.04-.02-.08,0-.12.02-.04.06-.09.12-.15.02-.02.05-.04.08-.04.03-.07.07-.13.11-.19.03-.04.07-.06.11-.06h.02s.06.02.09.04c.01.01.02.02.03.04,0,.02-.01.04-.01.07v.22h0v.1c0,.13.17.25.29.17.19-.13.37-.28.54-.43.06-.02.13-.04.19-.04.02,0,.05,0,.08.01.06.02.09.09.07.15,0,.02-.01.04-.02.05,0,.01-.02.02-.02.04h0c-.06.08-.11.15-.17.23-.17.18.09.43.27.27.14-.13.31-.24.48-.32h0c.06-.02.12,0,.15.04.02.03.02.07.01.1,0,.01-.02.03-.02.04h0s-.03.03-.04.05v.02h0c-.06.08-.12.15-.19.22-.17.18.09.43.27.27.04-.04.08-.07.12-.12.02,0,.04-.01.06-.02.05-.02.1-.05.15-.07.02,0,.04-.01.06-.01.02-.01.04-.02.06-.04.05-.02.11-.03.15-.04.04,0,.08.01.11.05.02.03.03.08.02.12,0,0,0,.02-.01.02-.04.06-.08.12-.12.18-.01.02-.02.03-.04.05,0,.04-.02.08,0,.1.04.14.21.05.31,0,.08-.09.18-.16.29-.22.2-.13.57-.21.75-.18.06.01.09.06.1.11,0,.06-.03.1-.08.12-.16.06-.25.18-.33.28l-.02.02c-.09.11-.11.2,0,.31.1.1.22.11.37.03.1-.05.19-.11.29-.17.11-.07.22-.14.34-.2.13-.07.27-.11.42-.16.06-.02.12-.04.19-.06.06-.02.12-.04.17-.06.06-.02.12,0,.15.06,0,0,0,.02,0,.02-.02.02-.04.04-.07.06-.14.13-.27.26-.44.37-.24.15-.69.39-.59.73.04.13.22.2.32.09.19-.21.4-.39.64-.53.08.04.17.06.26.02.24-.09.48-.17.72-.26.06-.02.12,0,.15.07s0,.13-.06.15c-.13.06-.26.12-.39.19-.15.06-.3.13-.42.24-.05.05-.09.1-.12.16-.19.18-.31.4-.24.67.04.15.16.24.29.23,0,0,.02.01.07.02.04,0,.1.01.14,0,.1-.03.15-.13.22-.2.11-.11.25-.19.39-.25.01,0,.02-.01.04-.01.02-.01.05-.02.08-.02.06-.01.11.01.13.06,0,0,0,.02.01.03.01,0,.03.01.04.02-.07.07-.15.13-.22.21-.14.16.04.41.24.3.14-.08.31-.14.49-.18h.04c.1,0,.2.11.18.21,0,.06-.02.11-.05.15-.19.12-.36.27-.49.47-.01.02-.02.04-.02.05-.05.07-.04.16,0,.23-.02.09.01.2.13.21.26.04.51,0,.76-.06.15-.04.29-.07.44-.09.07.01.14.04.2.06.09.04.21.1.27.18-.27.07-.56.16-.66.43-.05.13.07.23.19.25.11,0,.21.01.31.01.02,0,.06.02.08.02.08.01.16.02.22.04h.01s.1-.01.15-.02c.27-.03.54-.06.81-.1l.25-.03c.09-.01.19-.02.29-.04.08-.01.16-.02.25-.03.06,0,.12.03.13.09v.02c-.35.03-.67.2-1,.31-.34.12-.69.2-.9.51-.08.12.01.25.14.28.03.02.07.04.12.05.84.08,1.67-.14,2.47-.39.03.02.06.05.06.09,0,.05-.02.09-.06.12-.29.16-.58.29-.84.4-.07.03-.16.06-.23.1-.14.06-.29.12-.43.18-.21.09-.42.21-.34.47.02.07.1.15.19.14.26-.03.49.01.74-.07.21-.07.42-.16.64-.2.18-.04.36-.07.54-.1,0,.04-.01.09-.06.11-.02.02-.05.03-.08.05-.06.04-.11.07-.17.11-.46.11-1,.29-1.14.73-.04.1.06.26.19.25.32-.04.95-.23.96-.23.19-.07.37-.14.55-.21h.01c.17-.07.34-.13.51-.2.12-.04.24-.09.37-.15.14-.06.27-.11.41-.16.01,0,.02,0,.04-.01.05-.01.11.01.14.05.03.04.04.1.01.15h.02ZM29.36,36.91c.4-.01.79.04,1.17.17,0,.02-.01.04-.03.05-.09.04-.19.09-.3.15-.06.03-.11.07-.17.1-.04.02-.08.05-.12.07-.29.17-.59.32-.95.48-.33.15-.66.28-1.05.44l-.51.2-.27.08h-.02s-.05-.03-.05-.03c0,0,.25-.18.27-.2.16-.12.51-.42.54-.45.2-.15.4-.31.6-.45.03-.03.07-.06.11-.09.04-.02.07-.05.11-.07.07-.05.13-.1.2-.15.15-.12.31-.23.47-.31h0ZM27.86,35.06h.02c.06.01.11.03.16.04.02,0,.05.01.07.02.01.02.02.04.04.05.07.11.14.22.2.34-.15.12-.28.22-.42.31-.29.19-.59.37-.88.55l-.06.04c-.08.07-.16.13-.24.2-.27.21-.57.37-.85.54-.53.31-1.08.72-1.72.75-.07,0-.12-.04-.14-.09h0s-.05-.1-.02-.15c.01-.02.06-.08.06-.08.05-.04.09-.07.14-.1,0,0,.01,0,.02,0h0c.14-.1,2.02-1.27,2.1-1.3.02,0,.54-.34.75-.51.06-.06.12-.1.19-.16.13-.1.27-.2.41-.3.06-.04.12-.09.18-.13ZM27.14,33.96h.02s0-.02.01-.02c.03-.03.07-.04.11-.04.02,0,.03,0,.05.01h.02s.02.01.04.02v.04s.03.04.03.06c.02.23-1.4,1.62-1.97,1.95-.45.35-1.33.88-1.35.89h-.04s-.08-.19-.07-.21c.07-.3.41-.47.64-.65.29-.23.58-.45.87-.67.49-.38.96-.77,1.42-1.18.06-.08.13-.15.22-.21v.02ZM25.31,25.55s-.01.01,0,0h0ZM24.23,27.35l1.38-.99.88-.88c.11-.09.27.04.2.16-.09.16-.32.43-.43.63-.53.96-1.14,2.16-1.46,2.47l-.64-1.02c-.08-.13-.05-.29.06-.39h0ZM22.51,31.68l-.02-.02s-.02-.02-.02-.04c0-.01-.01-.02-.01-.04,0-.02,0-.04.02-.06,0,0,.01-.02.02-.02.09-.09.18-.18.27-.27l.12-.12.54-.53s.09-.09.16-.12c.07-.04.15-.07.24-.08h.07s-.04.05-.04.05c-.14.18-.29.36-.47.53h0c-.21.21-.44.39-.65.56-.06.05-.13.1-.19.16l-.02.02h-.01ZM23.12,33s-.2.18-.24.19h0s-.03.03-.03.03h0c-.09.09-.29,0-.25-.15.05-.2.16-.37.33-.48.1-.06.21-.1.3-.18.09-.08.17-.18.26-.26.24-.23.5-.43.75-.64.02-.03.06-.06.09-.07.15-.12.3-.23.45-.36.11-.09.31-.01.25.15-.15.41-.52.67-.86.93-.2.15-.4.29-.6.45-.07.05-.34.29-.41.36,0,0-.04.03-.04.03ZM23.4,34.43s0-.04.02-.06c.15-.29.76-.7.78-.72.03-.03.06-.06.11-.09.02-.02.04-.04.07-.06l.03-.02s.36-.27.48-.4c.14-.15.27-.26.46-.33.15-.06.24.15.14.25-.58.62-1.22,1.18-1.91,1.68-.15.1-.29-.12-.17-.24h0ZM23.64,35.81s-.06,0-.09-.01h-.01c-.07-.04-.11-.12-.05-.2.27-.41.56-.79.96-1.09.4-.3.8-.56,1.14-.93.19-.21.38-.41.56-.62.03-.04.06-.09.09-.13.02-.09.07-.18.16-.26.04-.05.08-.09.12-.12.12-.08.29-.04.36.09.09.16,0,.32-.13.42-.02.02-.47.45-.64.71-.07.12-.68.74-.75.81-.14.15-.28.29-.42.42-.06.06-.13.12-.19.18l-.02.02s-.64.5-.97.71c-.04.02-.07.02-.1.02v-.02ZM24.81,38.74h-.01c-.08.06-.56.26-.59.26-.02,0-.05.02-.07.02h0s-.07.02-.09.02c-.04,0-.08.01-.12.02-.03,0-.06,0-.09.01l-.06-.08.12-.08c.1-.06.21-.13.31-.19.01-.01.03-.02.05-.04.02-.02.06-.04.09-.05.03-.01.06-.02.09-.04h0l.09-.04s.69-.35.75-.39c.03-.02.07-.04.1-.06.04-.02.09-.04.14-.07.08-.04.16-.07.24-.1.41-.17.84-.36,1.19-.64.14-.11.27-.23.41-.36.07-.07.16-.14.23-.21l.03-.02c.07-.06.14-.12.22-.16.31-.14.57-.36.82-.65.16.18.28.39.37.62,0,0-.02.01-.02.02-.14.1-.27.2-.41.3-.09.07-.19.14-.28.21-.05.04-.09.06-.13.07h0c-.24.06-.44.2-.64.32-.05.03-.09.06-.14.09-.39.25-.82.43-1.23.62-.17.08-.36.16-.53.25-.17.08-.71.28-.83.32h0ZM27.58,39.52s-.04.01-.06.02c-.03.02-.06.03-.09.04,0,0-.02,0-.03.01h-.03s-.02.02-.03.02c-.02,0-.03,0-.05.01h-.02s-.01.01-.02.01c-.02,0-.04,0-.07.01h-.07c-.27.12-.54.23-.82.32-.13.04-.21-.09-.17-.19h0s.04-.07.09-.09c.24-.08.47-.17.7-.28.09-.08.22-.12.34-.16.06-.03.11-.06.17-.09.33-.17.64-.35.99-.48.38-.15.74-.34,1.09-.54.28-.16.55-.34.84-.48.02-.02.06-.04.08-.06.16-.1.3-.18.44-.24.04-.01.08-.02.11-.04.09-.02.17-.04.27-.04.39.06.77.2,1.12.39h0c-.09.13-.22.18-.38.23l-.02-.02v.03c-.09.04-.19.07-.3.11-.02,0-.04.01-.06.02-.01.01-.02.02-.05.04-.26.13-.52.26-.78.38-.22.1-.44.21-.69.22-.01,0-.03,0-.04.01-.7.23-1.41.47-2.11.7l-.31.1s-.04.01-.05.01h-.02ZM28.89,40.59s-.1.02-.15.02h-.02s-.07.02-.11.02c-.03,0-.06.01-.09.02-.08.02-.16.04-.22.07h-.06s-.03,0-.05-.01h0s-.04,0-.04,0h0l-.19.06v-.03c-.1,0-.21,0-.27-.07-.12-.12-.03-.28.09-.35.02-.02.05-.03.08-.05,0,0,.02-.01.02-.02.02-.02.04-.03.06-.05.01-.01.03-.02.04-.03.02-.02.06-.04.09-.07.05-.03.09-.05.13-.06.02,0,.05-.01.07-.02.02,0,.05-.01.08-.02.03-.01.06-.02.09-.03.04-.02.09-.04.13-.06.21-.1.41-.2.63-.25,0,0,0,0,.01-.01,0,0,.02-.02.02-.02.04-.03.08-.05.14-.07.01,0,.02,0,.04-.01.02,0,.04-.01.06-.01.06-.01.11-.02.16-.05.09-.04.19-.09.29-.12.06-.02.12-.05.18-.07.06-.02.14-.06.22-.1l.04-.02c.19-.09.39-.18.65-.28.11-.04.22-.08.34-.12l.15-.06s.07-.03.11-.04c.02,0,.03-.01.05-.02.22-.15.45-.29.68-.42h0s.04-.03.06-.04h0c.19-.1.38-.17.57-.2.27,0,.54,0,.8.09.24.08.47.21.7.32v.04h-.01s-.02.03-.04.04h0s-.08.07-.14.09c-.27.11-.52.21-.77.3l-.36.13c-.32.11-.69.25-1.07.37-.37.12-.75.28-1.14.47-.67.34-1.38.58-2.08.72v.02ZM29.96,41.58l-.36.06s-.03,0-.05.01h-.06s-.02.01-.04.02h-.21v-.07h.17s.07-.06.11-.07c.01,0,.03-.01.04-.01l.56-.18c.18-.06.36-.12.54-.18.09-.03.19-.07.27-.1.08-.03.16-.06.24-.09l.06-.02c.27-.1.56-.2.85-.28l.1-.03c.06-.02.12-.04.18-.06.02-.01.05-.02.07-.03.11-.05.21-.1.27-.18,0,0,.01-.01.02-.02h0c.07-.07.16-.12.24-.15.11-.05.23-.1.34-.16.19-.09.39-.18.59-.26.07-.03.14-.06.21-.09.06-.02.11-.04.17-.06h.02s.04-.02.05-.03c.04-.01.09-.03.13-.05.06-.02.12-.05.17-.07l.14-.06s.11-.04.16-.06c.01-.03.03-.06.07-.07.14-.06.27-.1.41-.13.07-.02.13-.05.19-.09.27-.02.54-.02.8.09.13.06.26.12.37.2.06.09.09.18.02.28-.07.1-.24.14-.35.18-.16.07-.33.13-.5.18-.03.01-.06.01-.08,0-.29.12-.54.22-.78.3-.01,0-.02,0-.04.01-.13.04-.25.07-.36.1-.05.01-.1.02-.14.04-.24.07-.47.14-.7.22-.1.04-.21.07-.31.1-.14.05-.29.1-.44.14-.27.09-.56.18-.85.27h-.03c-.1.04-.21.07-.34.09-.16.03-.32.06-.48.07-.12.01-.24.02-.34.04-.12.02-.23.03-.34.06-.09.02-.17.03-.26.05-.19.03-.38.07-.57.09h.01ZM32.97,42.47c-.09.02-.19.04-.26.05l-.11.02s-.09.02-.14.02c-.02,0-.04,0-.06,0h-.01s-.04,0-.06.01c-.03,0-.06.02-.09.02-.06.01-.11.02-.17.04-.04,0-.08.01-.12.02-.11.01-.24.02-.37.02-.09,0-.19.01-.27.02h-.06c-.07.01-.16.02-.24.02h-.11s-.06,0-.11-.01l-.19-.02.08-.06s.1-.07.14-.1c.09-.06.16-.09.24-.1.07-.01.16-.02.23-.03h.02c.06-.01.12-.02.17-.02.01,0,.02,0,.04-.01.33-.05.61-.23.93-.32.32-.1.67-.17.99-.25.19-.06.39-.11.59-.17.02-.01.04-.02.07-.03.15-.07.31-.12.46-.17h0s.07-.02.1-.04.06-.02.09-.03h0c.22-.15.44-.29.69-.36.02-.01.04-.03.07-.04.01,0,.02-.01.03-.02.05-.02.11-.04.16-.07.06-.02.11-.04.16-.07.06-.02.12-.05.19-.07.07-.02.13-.04.2-.06l.06-.02s.09-.02.13-.04h.02s.07-.03.11-.04c.04-.02.1-.04.15-.07.06-.05.12-.08.21-.1.04-.01.09-.02.15-.04.35-.07.67-.14.98-.2.08-.02.17-.03.27-.04.04,0,.09-.01.14-.02.05,0,.11.01.14.02h0s.02.01.03.02c.02.01.04.02.07.04h.02s0,.01.01.02c.01,0,.02,0,.02.01h.01s.03.01.05.01c.07.01.16.03.17.13,0,.04,0,.08-.02.11-.01.01-.02.02-.04.04-.01.01-.02.02-.04.03-.02.01-.04.02-.06.03-.04.02-.07.03-.1.06-.01,0-.02.02-.04.02-.01,0-.02.01-.04.01l-.43.17c-.42.16-.85.32-1.28.48-.08.03-.16.04-.24.06-.09.02-.17.04-.26.07-.33.13-.61.24-.89.34-.16.06-.31.1-.44.15-.12.04-.24.07-.36.1-.17.04-.33.09-.5.13l-.06.02c-.21.06-.42.11-.64.17l-.07.02c-.17.04-.35.09-.53.13v-.02ZM33.26,43.26h-.05l-.05-.09h.03s.02-.02.03-.02l.04-.02s.07-.03.11-.05c.02,0,.04-.02.07-.02.16-.05.33-.09.49-.14.18-.05.36-.1.54-.15.1-.03.21-.06.31-.09l.2-.06s.1-.03.15-.04c.57-.17,1.15-.34,1.73-.51l.13-.04s.04-.01.05-.01c.03,0,.06-.02.09-.02.02,0,.06-.02.08-.03.4-.19.82-.33,1.22-.47.21-.07.44-.15.65-.23h.02s.04-.01.05-.02c.08-.02.17-.04.26-.07.18-.06.37-.12.59-.23.34-.04.67,0,.98.15.13.06.26.14.4.2.06.02.11.04.17.07-.01.02-.02.04-.04.05,0,0,0,0,0,.01-.06.07-.14.1-.22.13-.09.04-.19.08-.32.13-.31.11-.63.21-1.06.31-.14.03-.27.06-.41.09-.02-.01-.05-.01-.07-.01-.06,0-.11.02-.15.07-.39.09-.79.18-1.17.26-.18.04-.36.08-.54.12-.16.04-.32.07-.48.1-.12.03-.25.06-.37.09l-.06.02c-.16.04-.33.09-.5.12-.29.06-.6.1-1,.13h-.02c-.64.06-1.22.15-1.77.26-.02,0-.04,0-.06,0h-.02ZM39.4,43.26v.03h0v-.03s-.08.02-.12.02c-.28.06-.57.12-.87.17-.02,0-.05,0-.08.01h-.04c-.12.02-.26.04-.38.06-.14.02-.28.04-.42.06h-.07c-.18.04-.36.08-.54.12h-.02s-.04.02-.07.02c-.11.03-.23.04-.36.05h-.27s-.07.01-.11.02c-.05,0-.1.02-.15.02-.06.01-.11.02-.16.03h-.01s-.02,0-.04.01c-.03.01-.06.02-.09.02-.07-.02-.14-.02-.23-.02h-.07c-.06,0-.11,0-.16.01h-.04c-.11.01-.22.02-.34.02h-.2c-.18,0-.37.03-.54.06-.06,0-.12.01-.18.02-.04,0-.09.01-.13.01l-.37.04v-.1s.11-.02.11-.02c.23-.03.46-.06.69-.09h.07c.07-.02.14-.03.21-.04.06,0,.12-.01.18-.02l.39-.05c.06,0,.11-.01.17-.02.17-.02.33-.04.5-.06.06,0,.13-.02.2-.04.03,0,.07-.02.1-.02.28-.08.57-.13.81-.18.09-.02.17-.03.26-.05l.15-.03c.12-.02.26-.05.41-.08.16-.04.32-.07.49-.1.16-.03.31-.06.46-.09h.05s.08-.03.12-.04c.02,0,.06-.01.07-.02h.02s.02-.01.03-.02h.02c.11-.05.22-.09.35-.12.04-.01.09-.02.14-.04.04-.01.08-.02.12-.02v-.02h0v.02s.02,0,.04-.01c.07-.02.14-.03.22-.04.06-.01.11-.02.16-.03.02,0,.04,0,.06-.01h0c.06-.02.11-.03.16-.06.05-.02.09-.04.12-.06h.02s.05-.04.07-.06c.01,0,.02-.01.04-.02.04-.02.08-.04.12-.06.15-.05.3-.1.44-.15.14-.04.27-.09.41-.13l.29-.09s.02,0,.03-.01c.02,0,.04-.01.06-.02h.06s.07.01.11,0c.45-.1.9-.19,1.35-.1.12.02.78.18,1.04.36h0l-.03.02s-.02.02-.04.02-.02.01-.03.02c-.01,0-.02.01-.03.01-.49.17-.99.26-1.52.35-.27.05-.55.09-.87.13l-.21.03c-.25.04-.51.07-.76.11-.03,0-.07.01-.1.02h-.04c-.2.04-.4.08-.55.1l-.23.04c-.13.02-.27.06-.4.08v.02ZM39.95,44.02s-.09,0-.11-.04c0-.02,0-.04,0-.06,0-.01.01-.03.02-.04.02-.02.09-.07.09-.07.04,0,.08-.01.12-.02.04,0,.09-.02.14-.02.14-.02,1.17-.07,1.27-.07,0,0,2-.32,2.11-.36l.07-.02c.13-.04.91-.2.91-.2.07-.01.44-.13.54-.15.15-.03.3-.02.46,0,.03,0,.06.02.08.03.07.02.14.04.22.08.11.06.22.1.33.15l.04.02s.09.04.12.06c.01,0,.02.01.03.02h0c.11.06.19.14.27.23-.01.04-.01.08.01.12.01.02-.05.07-.11.11-.04.01-.09.03-.14.05-.08.03-.16.06-.25.07-.19.03-.4.05-.59.06-.09,0-.18.01-.27.02-.14.01-.27.02-.41.04l-.41.04s-.05,0-.07,0c-.04,0-.09.01-.14.01h-.07c-.16,0-.32,0-.49.02-.24.02-.47.04-.7.06l-.18.02c-.06,0-.11.01-.18.01-.11,0-.21.01-.31.01h-.17c-.14.01-1.39-.1-2.25-.21h-.02ZM40.63,45.19l-.03-.03s0-.08.03-.1c.02-.02.05-.03.07-.03h.06s.93-.06,1.29-.08c.21-.01.41-.02.62-.02h.15c.17-.01.34-.02.51-.02.12,0,.25,0,.37-.01.11,0,.22-.01.32-.02s.22-.01.32-.02l.37-.03c.09,0,.19-.01.28-.02.06,0,.11,0,.16-.01h.12c.16-.02.32-.03.48-.04.28-.02.51-.02.72-.02.16,0,.31,0,.46-.01h.02c.08,0,.16-.02.24-.03.06,0,.11-.02.16-.02.04,0,.07-.01.11-.02.09-.02.17-.04.24-.06.16-.04.33-.07.5-.11h.06c.09-.03.3-.07.3-.07,0,0,.21.07.34.18.04.03.44.29.48.36.04.07-.02.15-.11.18-.11.03-.19.04-.27.05-.39,0-.77.01-1.15.02-.21,0-.41,0-.62.01h-.23c-.07,0-.15,0-.22.01h-.06s-.06,0-.09.01c-.09,0-.18.01-.27.01-.22.01-.46.02-.69.03h-.17c-.21,0-.42,0-.63,0-.18,0-.36,0-.54,0h-.2c-.08,0-1.22-.06-1.35-.07h-2.18,0ZM51.72,46.55c-.06.06-.12.07-.16.08h0c-.06.01-.12.02-.19.03-.06,0-.19.01-.21.01-.01,0-.37-.03-.47-.05-.12-.02-.38-.04-.41-.04-.04,0-1.04-.05-1.22-.07-.26-.03-1.88-.1-1.9-.1-.3,0-3.66-.23-3.82-.26l-.09-.02c-.12-.02-.24-.04-.38-.06h-.06c-.36-.06-.72-.09-1.08-.12h-.16s-.04-.01-.06-.02c-.09-.01-.19-.02-.29-.05-.07-.01-.14-.02-.22-.04l-.21-.03.21-.02c.12-.01.24-.02.37-.02.11,0,.22,0,.35,0,.06,0,1.89,0,1.96,0,0,0,2.84-.02,2.97-.02.17,0,.59-.02.62-.02.11,0,1.85-.07,2.15-.07.16,0,.32,0,.51.01.13,0,.27.02.42.04h.07c.14.04.27.06.4.09.07.02.14.04.22.07.03.01.07.02.1.04.1.04.19.1.28.16.02.01.04.03.06.04.11.08.3.34.23.42h0Z"/></g></g></svg>